<svg xmlns="http://www.w3.org/2000/svg" viewBox="0 0 663.31 204.09"><defs><style>.cls-1{fill:none;}.cls-2{fill:#95c11f;}.cls-3{fill:#163767;}</style></defs><title>cargo-care_logoset_screen_full-colour</title><g id="bounding-box"><rect class="cls-1" y="-0.12" width="663.31" height="204.21"/></g><g id="logo"><path class="cls-2" d="M156.45,83l-19.28,19.28-35,35-23-23L59.88,133.5l23,23,9.87,9.88a13.34,13.34,0,0,0,18.81,0l54.74-54.74a13.31,13.31,0,0,0,0-18.81Z"/><path class="cls-3" d="M121.46,48l-9.87-9.88a13.31,13.31,0,0,0-18.81,0L38,92.86a13.31,13.31,0,0,0,0,18.81l9.88,9.87,19.27-19.27,35-35,23,23L144.45,71Z"/><path class="cls-2" d="M204.31,160.84l7.06-9.2c4,4.47,10.61,7.73,15.64,7.73,3.75,0,6.42-1.8,6.42-5.29,0-4.65-4.84-6.34-11.41-9.27-7.43-3.3-15.49-7.2-15.49-17.52,0-10.47,8.25-16.36,18.34-16.36a31.22,31.22,0,0,1,19.78,7.51l-6.53,9.27c-4.09-3.87-9.61-6.08-13.62-6.08-3.12,0-5.44,1.42-5.44,4.35,0,4,4.57,5.7,11.18,8.63,7.65,3.41,16.06,7.77,16.06,18.65,0,11.18-9,16.77-19.48,16.77A32.82,32.82,0,0,1,204.31,160.84Z"/><path class="cls-2" d="M252.19,149.43c0-12.12,9.42-20.6,22-20.6s22.06,8.48,22.06,20.6-9.49,20.64-22.06,20.64S252.19,161.59,252.19,149.43Zm32.38,0a10.13,10.13,0,0,0-10.39-10.36,10,10,0,0,0-10.36,10.36c0,6.3,4.58,10.32,10.36,10.32A10.05,10.05,0,0,0,284.57,149.43Z"/><path class="cls-2" d="M302.84,111.68h12.27v57.63H302.84Z"/><path class="cls-2" d="M322.35,154.27V129.58h12.23v23.83c0,4.39,3,6.41,6.87,6.41s6.9-2,6.9-6.41V129.58h12.31v24.69c0,9.72-6.94,15.8-19.21,15.8S322.35,164,322.35,154.27Z"/><path class="cls-2" d="M384.81,137.72v17.34c0,3.52,1.84,5,4.47,5h3.9v9.23h-7.24c-8.44,0-13.43-4.61-13.43-12.86V137.72h-6.16v-8.14h6.16v-11h12.3v11h8.56v8.14Z"/><path class="cls-2" d="M399.33,117.69a6.83,6.83,0,1,1,6.91,6.79A6.84,6.84,0,0,1,399.33,117.69Zm.72,11.89h12.19v39.73H400.05Z"/><path class="cls-2" d="M418.65,149.43c0-12.12,9.42-20.6,22-20.6s22.07,8.48,22.07,20.6-9.5,20.64-22.07,20.64S418.65,161.59,418.65,149.43Zm32.38,0a10.13,10.13,0,0,0-10.39-10.36,10,10,0,0,0-10.36,10.36c0,6.3,4.58,10.32,10.36,10.32A10.05,10.05,0,0,0,451,149.43Z"/><path class="cls-2" d="M505.24,143.31v26H492.86V145.75c0-5.51-2.44-6.79-5.89-6.79-3.94,0-6.75,2.48-6.79,7.77v22.58H467.84V129.58h12.34v5.55a14.47,14.47,0,0,1,12.08-6.3C500.59,128.83,505.24,134,505.24,143.31Z"/><path class="cls-2" d="M510.68,165l4.88-8.52c3.38,2.51,8.48,4.62,12.08,4.62,2.52,0,4.2-1,4.2-3,0-2.66-3.56-3.45-7.76-4.91-5.18-1.77-11.48-4-11.48-12,0-8.52,7.09-12.42,15.27-12.42A28.17,28.17,0,0,1,542.5,133l-5,7.76c-2.7-1.76-7-3.3-9.83-3.3-2.22,0-3.72.9-3.72,2.51,0,2.41,3.79,3.08,8.22,4.51,5.33,1.8,11.37,4.27,11.37,12.6,0,8.78-6.79,13-15.76,13A32.09,32.09,0,0,1,510.68,165Z"/><path class="cls-3" d="M205.52,64c0-17,13-29.57,30.69-29.57a31.07,31.07,0,0,1,22.43,9.15l-9,8.37a17.94,17.94,0,1,0,0,24.09l9,8.37a31.07,31.07,0,0,1-22.43,9.15C218.57,93.53,205.52,81,205.52,64Z"/><path class="cls-3" d="M262.84,72.82c0-12.16,8.74-20.79,19-20.79a15.34,15.34,0,0,1,12.38,5.52l.08-4.5h12.27V92.78H294.2V88.2c-2.66,3.23-6.67,5.41-12.38,5.41C271.58,93.61,262.84,85,262.84,72.82Zm32.9,0c0-6.49-4.5-10.58-10.24-10.58s-10.39,4.09-10.39,10.58,4.5,10.58,10.39,10.58S295.74,79.31,295.74,72.82Z"/><path class="cls-3" d="M341.15,52.67V64.34c-8.48,0-13,3-13,10.39v18H315.9V53.05h11.67V61A17,17,0,0,1,341.15,52.67Z"/><path class="cls-3" d="M344.15,102.69l7.58-7.06a15.25,15.25,0,0,0,12.42,6.31c6.41,0,10.28-3.64,10.28-10.66V86.93c-2.48,3.22-6.27,5.44-11.82,5.44-10.58,0-18.83-8.29-18.83-20.15S352,52.3,362.42,52.3c5.63,0,9.46,2.29,12,5.59V53.05H386.7V90c0,14.14-8.48,21.5-22.36,21.5C357.85,111.47,350.53,109.78,344.15,102.69Zm31.37-30.47c0-6.19-4.32-10.06-9.76-10.06S356,66,356,72.22s4.28,9.94,9.72,9.94S375.52,78.37,375.52,72.22Z"/><path class="cls-3" d="M393.35,72.9c0-12.12,9.42-20.6,22-20.6s22.06,8.48,22.06,20.6S428,93.53,415.38,93.53,393.35,85.05,393.35,72.9Zm32.38,0a10.13,10.13,0,0,0-10.39-10.36A10,10,0,0,0,405,72.9c0,6.3,4.58,10.31,10.36,10.31A10,10,0,0,0,425.73,72.9Z"/><path class="cls-3" d="M449.67,64c0-17,13.06-29.57,30.69-29.57a31.11,31.11,0,0,1,22.44,9.15l-9,8.37a17.94,17.94,0,1,0,0,24.09l9,8.37a31.11,31.11,0,0,1-22.44,9.15C462.73,93.53,449.67,81,449.67,64Z"/><path class="cls-3" d="M507,72.82C507,60.66,515.73,52,526,52a15.37,15.37,0,0,1,12.39,5.52l.07-4.5H550.7V92.78H538.36V88.2c-2.67,3.23-6.68,5.41-12.39,5.41C515.73,93.61,507,85,507,72.82Zm32.9,0c0-6.49-4.5-10.58-10.24-10.58s-10.39,4.09-10.39,10.58,4.5,10.58,10.39,10.58S539.89,79.31,539.89,72.82Z"/><path class="cls-3" d="M583.74,52.67V64.34c-8.48,0-13,3-13,10.39v18H558.49V53.05h11.67V61A17,17,0,0,1,583.74,52.67Z"/><path class="cls-3" d="M629.11,74.92H599.76c.46,5.89,4.47,9,9.53,9a9.7,9.7,0,0,0,8.93-5.1l9.61,4c-3,6.57-9.72,10.62-18.54,10.62-13.13,0-21.64-9.08-21.64-20.6s8.7-20.71,21.23-20.71c11.41,0,20.23,7.77,20.34,20.26Zm-29.05-7.13h17.26c-.52-4.42-3.86-6.9-8.33-6.9S601.12,63.4,600.06,67.79Z"/></g></svg>